<svg xmlns="http://www.w3.org/2000/svg" viewBox="0 0 16 16" width="16" height="16" shape-rendering="crispEdges">
  <!-- Front-view pixelated brain icon -->
  <!-- #000 = outline/sulci, #f496ad = pink fill -->

  <!-- Row 0 -->
  <rect fill="#000" x="5" y="0" width="6" height="1"/>

  <!-- Row 1 -->
  <rect fill="#000" x="3" y="1" width="2" height="1"/>
  <rect fill="#f496ad" x="5" y="1" width="6" height="1"/>
  <rect fill="#000" x="11" y="1" width="2" height="1"/>

  <!-- Row 2 -->
  <rect fill="#000" x="2" y="2" width="1" height="1"/>
  <rect fill="#f496ad" x="3" y="2" width="4" height="1"/>
  <rect fill="#000" x="7" y="2" width="1" height="1"/>
  <rect fill="#f496ad" x="8" y="2" width="5" height="1"/>
  <rect fill="#000" x="13" y="2" width="1" height="1"/>

  <!-- Row 3 -->
  <rect fill="#000" x="1" y="3" width="1" height="1"/>
  <rect fill="#f496ad" x="2" y="3" width="2" height="1"/>
  <rect fill="#000" x="4" y="3" width="1" height="1"/>
  <rect fill="#f496ad" x="5" y="3" width="2" height="1"/>
  <rect fill="#000" x="7" y="3" width="1" height="1"/>
  <rect fill="#f496ad" x="8" y="3" width="2" height="1"/>
  <rect fill="#000" x="10" y="3" width="1" height="1"/>
  <rect fill="#f496ad" x="11" y="3" width="3" height="1"/>
  <rect fill="#000" x="14" y="3" width="1" height="1"/>

  <!-- Row 4 -->
  <rect fill="#000" x="1" y="4" width="1" height="1"/>
  <rect fill="#f496ad" x="2" y="4" width="1" height="1"/>
  <rect fill="#000" x="3" y="4" width="1" height="1"/>
  <rect fill="#f496ad" x="4" y="4" width="3" height="1"/>
  <rect fill="#000" x="7" y="4" width="1" height="1"/>
  <rect fill="#f496ad" x="8" y="4" width="2" height="1"/>
  <rect fill="#000" x="10" y="4" width="1" height="1"/>
  <rect fill="#f496ad" x="11" y="4" width="2" height="1"/>
  <rect fill="#000" x="13" y="4" width="1" height="1"/>

  <!-- Row 5 -->
  <rect fill="#000" x="0" y="5" width="1" height="1"/>
  <rect fill="#f496ad" x="1" y="5" width="3" height="1"/>
  <rect fill="#000" x="4" y="5" width="1" height="1"/>
  <rect fill="#f496ad" x="5" y="5" width="2" height="1"/>
  <rect fill="#000" x="7" y="5" width="1" height="1"/>
  <rect fill="#f496ad" x="8" y="5" width="2" height="1"/>
  <rect fill="#000" x="10" y="5" width="1" height="1"/>
  <rect fill="#f496ad" x="11" y="5" width="4" height="1"/>
  <rect fill="#000" x="15" y="5" width="1" height="1"/>

  <!-- Row 6 -->
  <rect fill="#000" x="0" y="6" width="1" height="1"/>
  <rect fill="#f496ad" x="1" y="6" width="1" height="1"/>
  <rect fill="#000" x="2" y="6" width="1" height="1"/>
  <rect fill="#f496ad" x="3" y="6" width="2" height="1"/>
  <rect fill="#000" x="5" y="6" width="1" height="1"/>
  <rect fill="#f496ad" x="6" y="6" width="1" height="1"/>
  <rect fill="#000" x="7" y="6" width="1" height="1"/>
  <rect fill="#f496ad" x="8" y="6" width="1" height="1"/>
  <rect fill="#000" x="9" y="6" width="1" height="1"/>
  <rect fill="#f496ad" x="10" y="6" width="2" height="1"/>
  <rect fill="#000" x="12" y="6" width="1" height="1"/>
  <rect fill="#f496ad" x="13" y="6" width="2" height="1"/>
  <rect fill="#000" x="15" y="6" width="1" height="1"/>

  <!-- Row 7 -->
  <rect fill="#000" x="0" y="7" width="1" height="1"/>
  <rect fill="#f496ad" x="1" y="7" width="6" height="1"/>
  <rect fill="#000" x="7" y="7" width="1" height="1"/>
  <rect fill="#f496ad" x="8" y="7" width="7" height="1"/>
  <rect fill="#000" x="15" y="7" width="1" height="1"/>

  <!-- Row 8 -->
  <rect fill="#000" x="0" y="8" width="1" height="1"/>
  <rect fill="#f496ad" x="1" y="8" width="2" height="1"/>
  <rect fill="#000" x="3" y="8" width="1" height="1"/>
  <rect fill="#f496ad" x="4" y="8" width="3" height="1"/>
  <rect fill="#000" x="7" y="8" width="1" height="1"/>
  <rect fill="#f496ad" x="8" y="8" width="3" height="1"/>
  <rect fill="#000" x="11" y="8" width="1" height="1"/>
  <rect fill="#f496ad" x="12" y="8" width="3" height="1"/>
  <rect fill="#000" x="15" y="8" width="1" height="1"/>

  <!-- Row 9 -->
  <rect fill="#000" x="0" y="9" width="1" height="1"/>
  <rect fill="#f496ad" x="1" y="9" width="1" height="1"/>
  <rect fill="#000" x="2" y="9" width="1" height="1"/>
  <rect fill="#f496ad" x="3" y="9" width="4" height="1"/>
  <rect fill="#000" x="7" y="9" width="1" height="1"/>
  <rect fill="#f496ad" x="8" y="9" width="2" height="1"/>
  <rect fill="#000" x="10" y="9" width="1" height="1"/>
  <rect fill="#f496ad" x="11" y="9" width="2" height="1"/>
  <rect fill="#000" x="13" y="9" width="1" height="1"/>
  <rect fill="#f496ad" x="14" y="9" width="1" height="1"/>
  <rect fill="#000" x="15" y="9" width="1" height="1"/>

  <!-- Row 10 -->
  <rect fill="#000" x="0" y="10" width="1" height="1"/>
  <rect fill="#f496ad" x="1" y="10" width="3" height="1"/>
  <rect fill="#000" x="4" y="10" width="1" height="1"/>
  <rect fill="#f496ad" x="5" y="10" width="2" height="1"/>
  <rect fill="#000" x="7" y="10" width="1" height="1"/>
  <rect fill="#f496ad" x="8" y="10" width="1" height="1"/>
  <rect fill="#000" x="9" y="10" width="1" height="1"/>
  <rect fill="#f496ad" x="10" y="10" width="4" height="1"/>
  <rect fill="#000" x="14" y="10" width="1" height="1"/>

  <!-- Row 11 -->
  <rect fill="#000" x="1" y="11" width="1" height="1"/>
  <rect fill="#f496ad" x="2" y="11" width="3" height="1"/>
  <rect fill="#000" x="5" y="11" width="1" height="1"/>
  <rect fill="#f496ad" x="6" y="11" width="1" height="1"/>
  <rect fill="#000" x="7" y="11" width="1" height="1"/>
  <rect fill="#f496ad" x="8" y="11" width="2" height="1"/>
  <rect fill="#000" x="10" y="11" width="1" height="1"/>
  <rect fill="#f496ad" x="11" y="11" width="2" height="1"/>
  <rect fill="#000" x="13" y="11" width="1" height="1"/>

  <!-- Row 12 -->
  <rect fill="#000" x="2" y="12" width="1" height="1"/>
  <rect fill="#f496ad" x="3" y="12" width="4" height="1"/>
  <rect fill="#000" x="7" y="12" width="1" height="1"/>
  <rect fill="#f496ad" x="8" y="12" width="4" height="1"/>
  <rect fill="#000" x="12" y="12" width="1" height="1"/>

  <!-- Row 13 -->
  <rect fill="#000" x="3" y="13" width="1" height="1"/>
  <rect fill="#f496ad" x="4" y="13" width="3" height="1"/>
  <rect fill="#000" x="7" y="13" width="1" height="1"/>
  <rect fill="#f496ad" x="8" y="13" width="3" height="1"/>
  <rect fill="#000" x="11" y="13" width="1" height="1"/>

  <!-- Row 14 -->
  <rect fill="#000" x="4" y="14" width="2" height="1"/>
  <rect fill="#f496ad" x="6" y="14" width="1" height="1"/>
  <rect fill="#000" x="7" y="14" width="1" height="1"/>
  <rect fill="#f496ad" x="8" y="14" width="1" height="1"/>
  <rect fill="#000" x="9" y="14" width="3" height="1"/>

  <!-- Row 15 -->
  <rect fill="#000" x="6" y="15" width="3" height="1"/>
</svg>
